<svg width="40" height="40" viewBox="0 0 40 40" fill="none" xmlns="http://www.w3.org/2000/svg">
<path d="M15.2076 32.3808C16.4755 32.3808 20.0005 32.3808 20.0005 32.3808C20.0005 32.3808 23.5248 32.3808 24.7934 32.3808C26.0608 32.3808 26.6362 30.5369 25.9027 29.2336C25.3502 28.2514 24.4449 27.1378 22.9717 26.5054C22.1285 27.0957 21.1041 27.4429 20.0005 27.4429C18.8955 27.4429 17.8725 27.0957 17.0292 26.5054C15.5555 27.1378 14.6508 28.2514 14.0977 29.2336C13.3648 30.5369 13.9396 32.3808 15.2076 32.3808Z" fill="#AFA496"/>
<path d="M20 26.2091C22.1652 26.2091 23.9193 24.4557 23.9193 22.2904V21.3517C23.9193 19.1865 22.1653 17.4318 20 17.4318C17.8349 17.4318 16.0802 19.1865 16.0802 21.3517V22.2904C16.0802 24.4557 17.8349 26.2091 20 26.2091Z" fill="#AFA496"/>
<path d="M31.6389 4.44446H25.7143V5.7143C25.7143 8.16469 23.7203 10.1588 21.2699 10.1588H18.7302C16.2798 10.1588 14.2857 8.16469 14.2857 5.7143V4.44446H8.36128C6.37339 4.44446 4.7619 6.05594 4.7619 8.04375V36.4007C4.7619 38.3885 6.37339 40 8.36128 40H31.6388C33.6266 40 35.2381 38.3885 35.2381 36.4007V8.04375C35.2382 6.05594 33.6267 4.44446 31.6389 4.44446ZM31.4286 36.1905H8.57143V11.746H31.4286V36.1905Z" fill="#AFA496"/>
<path d="M18.7305 8.88891H21.2701C23.0206 8.88891 24.4448 7.46469 24.4448 5.7143V3.17461C24.4448 1.42422 23.0205 0 21.2701 0H18.7305C16.9801 0 15.5558 1.42422 15.5558 3.17461V5.7143C15.5558 7.46461 16.9801 8.88891 18.7305 8.88891ZM18.0955 3.17461C18.0955 2.82367 18.3795 2.53969 18.7305 2.53969H21.2701C21.6212 2.53969 21.9051 2.82367 21.9051 3.17461V4.44445C21.9051 4.79539 21.6212 5.07937 21.2701 5.07937H18.7305C18.3795 5.07937 18.0955 4.79539 18.0955 4.44445V3.17461Z" fill="#AFA496"/>
</svg>
