<svg width="40" height="40" viewBox="0 0 40 40" fill="none" xmlns="http://www.w3.org/2000/svg">
<g clip-path="url(#clip0_139_870)">
<path d="M40 0H0V3.125H1.25V26.25H38.75V3.125H40V0ZM36.25 23.75H3.75V3.125H36.25V23.75Z" fill="#AFA496"/>
<path d="M21.25 27.5H18.75V40H21.25V27.5Z" fill="#AFA496"/>
<path d="M8.84955 40H11.3495L16.5766 27.5H14.0766L8.84955 40Z" fill="#AFA496"/>
<path d="M23.4238 27.5L28.6508 40H31.1508L25.9238 27.5H23.4238Z" fill="#AFA496"/>
<path d="M15 13.4388H10V21.5638H15V13.4388Z" fill="#AFA496"/>
<path d="M22.5 10.3138H17.5V21.5638H22.5V10.3138Z" fill="#AFA496"/>
<path d="M30 7.18875H25V21.5638H30V7.18875Z" fill="#AFA496"/>
</g>
<defs>
<clipPath id="clip0_139_870">
<rect width="40" height="40" fill="white"/>
</clipPath>
</defs>
</svg>
