<svg width="40" height="40" viewBox="0 0 40 40" fill="none" xmlns="http://www.w3.org/2000/svg">
<path d="M11 22.418C11 21.6347 10.3653 21 9.583 21H6.417C5.63475 21 5 21.6347 5 22.418V32H11V22.418Z" fill="#AFA496"/>
<path d="M36 34H4V36H36V34Z" fill="#AFA496"/>
<path d="M19 17.418C19 16.6348 18.3653 16 17.583 16H14.417C13.6347 16 13 16.6348 13 17.418V32H19V17.418Z" fill="#AFA496"/>
<path d="M27 11.418C27 10.6348 26.3653 10 25.583 10H22.417C21.6347 10 21 10.6348 21 11.418V32H27V11.418Z" fill="#AFA496"/>
<path d="M35 5.418C35 4.63475 34.3653 4 33.583 4H30.417C29.6347 4 29 4.63475 29 5.418V32H35V5.418Z" fill="#AFA496"/>
</svg>
