<svg width="40" height="40" viewBox="0 0 40 40" fill="none" xmlns="http://www.w3.org/2000/svg">
<g clip-path="url(#clip0_139_838)">
<path d="M36.6423 5.37906C37.2368 5.37906 37.7188 4.89695 37.7188 4.3025V3.92422C37.7188 3.32977 37.2368 2.84773 36.6423 2.84773H21.2653V0H18.7339V2.84773H3.35684C2.76238 2.84773 2.28027 3.32977 2.28027 3.92422V4.3025C2.28027 4.89695 2.76238 5.37906 3.35684 5.37906H4.17879V23.4148H3.35684C2.76238 23.4148 2.28027 23.8968 2.28027 24.4913V24.8695C2.28027 25.4641 2.76238 25.9461 3.35684 25.9461H4.17879H18.7339V31.1243L14.3959 35.9595C14.2309 35.9163 14.0607 35.8866 13.8821 35.8866C12.7461 35.8866 11.8254 36.8074 11.8254 37.9434C11.8254 39.0792 12.7461 40.0001 13.8821 40.0001C15.0179 40.0001 15.9387 39.0792 15.9387 37.9434C15.9387 37.6863 15.8859 37.4427 15.7996 37.216L20.0546 32.4734L24.1843 37.2642C24.1093 37.4781 24.0604 37.7042 24.0604 37.9434C24.0604 39.0793 24.9813 40.0002 26.1171 40.0002C27.253 40.0002 28.1739 39.0793 28.1739 37.9434C28.1739 36.8075 27.2531 35.8867 26.1171 35.8867C25.9209 35.8867 25.735 35.9232 25.5554 35.9745L21.3456 31.0898L21.2971 31.0886L21.3456 31.0348H21.2653V25.9461H35.8204H36.6423C37.2368 25.9461 37.7188 25.464 37.7188 24.8695V24.4913C37.7188 23.8968 37.2368 23.4148 36.6423 23.4148H35.8204V5.37906H36.6423ZM6.0773 23.4148V5.37906H33.9219V23.4148H6.0773Z" fill="#AFA496"/>
<path d="M28.1164 8.26132C27.0918 8.26132 26.2612 9.09195 26.2612 10.1173C26.2612 10.4454 26.3532 10.7488 26.5028 11.0165L22.026 16.1922C21.8202 16.1137 21.5996 16.0661 21.366 16.0661C21.2035 16.0661 21.0484 16.0939 20.8982 16.1328L19.0813 13.5082C19.2963 13.2053 19.4255 12.837 19.4255 12.4372C19.4255 11.4119 18.5949 10.5813 17.569 10.5813C16.5437 10.5813 15.7131 11.4119 15.7131 12.4372C15.7131 12.7184 15.7799 12.9816 15.8917 13.2201L11.8129 17.2989C11.5744 17.187 11.3111 17.1203 11.0299 17.1203C10.0047 17.1203 9.17407 17.9509 9.17407 18.9762C9.17407 20.0014 10.0047 20.8326 11.0299 20.8326C12.0558 20.8326 12.8864 20.0014 12.8864 18.9762C12.8864 18.6955 12.8196 18.4323 12.7078 18.1938L16.7866 14.115C17.0252 14.2269 17.2884 14.2936 17.569 14.2936C17.7321 14.2936 17.8873 14.2658 18.0381 14.2262L19.8549 16.8503C19.6399 17.1531 19.5101 17.5215 19.5101 17.9219C19.5101 18.9472 20.3407 19.7784 21.3659 19.7784C22.3918 19.7784 23.2224 18.9472 23.2224 17.9219C23.2224 17.5937 23.1304 17.2903 22.9808 17.0227L27.4563 11.8469C27.6621 11.9261 27.8834 11.9737 28.1163 11.9737C29.1422 11.9737 29.9728 11.1424 29.9728 10.1172C29.9729 9.09195 29.1424 8.26132 28.1164 8.26132Z" fill="#AFA496"/>
</g>
<defs>
<clipPath id="clip0_139_838">
<rect width="40" height="40" fill="white"/>
</clipPath>
</defs>
</svg>
