<svg width="22" height="21" viewBox="0 0 22 21" fill="none" xmlns="http://www.w3.org/2000/svg">
<path d="M10.0554 0.717388C10.3667 -0.178172 11.6333 -0.178173 11.9446 0.717387L13.828 6.13583C13.9653 6.5309 14.334 6.79877 14.7522 6.80729L20.4875 6.92416C21.4354 6.94348 21.8268 8.14803 21.0712 8.72083L16.5 12.1865C16.1667 12.4392 16.0259 12.8726 16.147 13.2729L17.8081 18.7636C18.0827 19.6711 17.058 20.4156 16.2798 19.874L11.5712 16.5975C11.2279 16.3586 10.7721 16.3586 10.4288 16.5975L5.7202 19.874C4.94196 20.4156 3.91731 19.6711 4.19186 18.7636L5.853 13.2729C5.97412 12.8726 5.83329 12.4392 5.49999 12.1865L0.928769 8.72083C0.173237 8.14803 0.564617 6.94348 1.51254 6.92416L7.2478 6.80729C7.66597 6.79877 8.03466 6.5309 8.17199 6.13583L10.0554 0.717388Z" fill="currentColor"/>
</svg>
