<svg width="24" height="24" viewBox="0 0 24 24" fill="none" xmlns="http://www.w3.org/2000/svg">
<path d="M3.34072 10.8316C9.49904 8.1224 17.4684 4.81931 18.5685 4.36214C21.4541 3.16556 22.3395 3.39488 21.898 6.0448C21.581 7.94943 20.6661 14.2552 19.937 18.1801C19.5044 20.5076 18.5337 20.7835 17.0073 19.7766C16.2733 19.2919 12.5684 16.8419 11.7643 16.2667C11.0303 15.7424 10.0179 15.1118 11.2875 13.8696C11.7393 13.4271 14.7009 10.5993 17.0083 8.39827C17.3106 8.10917 16.9309 7.63436 16.582 7.86613C13.472 9.92853 9.15996 12.7911 8.61116 13.164C7.78208 13.727 6.98583 13.9852 5.5565 13.5746C4.47654 13.2645 3.42157 12.8945 3.01095 12.7534C1.42972 12.2105 1.80506 11.5073 3.34072 10.8316Z" fill="currentColor"/>
</svg>
