<svg width="40" height="40" viewBox="0 0 40 40" fill="none" xmlns="http://www.w3.org/2000/svg">
<path d="M23.828 19.6877C23.203 19.4527 23.203 18.5552 23.1642 17.9302C23.008 15.7039 23.7892 12.3052 22.8517 10.8602C22.188 10.0002 18.9842 10.0789 17.0317 10.1964C16.4842 10.2752 15.8205 10.3914 15.3517 10.6264C14.883 10.8614 14.4142 11.2514 14.4142 11.6027C14.4142 12.1102 15.5867 12.0327 16.0155 12.6964C16.4842 13.4002 16.4842 14.9227 16.4842 16.1727C16.4842 17.6177 16.2492 19.5327 15.6642 19.6102C14.7655 19.6489 14.258 18.7502 13.7892 18.0864C12.8517 16.7977 11.9142 15.1952 11.2105 13.6327C10.8592 12.8127 10.663 11.9139 10.1555 11.5627C9.37421 11.0152 7.96796 10.9764 6.60046 11.0152C5.35046 11.0539 3.55296 10.8977 3.20171 11.6402C2.92796 12.4602 3.51421 13.2414 3.82671 13.9064C5.42796 17.3827 7.14671 20.4302 9.25671 23.3202C11.2105 26.0152 13.0455 28.1639 16.6392 29.2964C17.6555 29.6089 22.108 30.5077 23.0067 29.2964C23.3192 28.8277 23.2417 27.7727 23.398 26.9914C23.5542 26.2102 23.7492 25.4289 24.4917 25.3902C25.1167 25.3514 25.468 25.8977 25.8592 26.2889C26.2892 26.7189 26.6405 27.0702 26.953 27.4614C27.6955 28.2039 28.4767 29.2189 29.4142 29.6102C30.703 30.1577 32.6955 30.0014 34.5705 29.9227C36.0942 29.8839 37.188 29.5714 37.3055 28.6727C37.3842 27.9689 36.6017 26.9539 36.133 26.3677C34.9605 24.9227 34.4142 24.4927 33.0855 23.1639C32.4992 22.5777 31.7567 21.9527 31.7567 21.2502C31.718 20.8202 32.0692 20.4302 32.3817 20.0002C33.7492 17.9689 35.1167 16.5239 36.3667 14.4139C36.718 13.7889 37.5392 12.3439 37.2267 11.6402C36.8755 10.8589 34.9217 11.0927 33.7105 11.0927C32.148 11.0927 30.1167 10.9752 29.7255 11.2877C28.983 11.7952 28.6705 12.6164 28.3192 13.3977C27.538 15.1952 26.483 17.0302 25.3892 18.3977C24.998 18.8664 24.2567 19.8427 23.8267 19.6864L23.828 19.6877Z" fill="currentColor"/>
</svg>
