<svg width="80" height="80" viewBox="0 0 80 80" fill="none" xmlns="http://www.w3.org/2000/svg">
<path d="M54.3752 54.7813C54.6252 54.8751 55.0314 55.0001 55.5002 54.9688C56.2502 54.9376 56.9377 54.6251 57.4377 54.1251C58.0002 53.5626 58.2814 52.8126 58.2814 52.0313C58.2189 47.3126 61.2189 43.1876 65.6877 41.7813C66.0002 41.6876 66.3127 41.5313 66.5939 41.3126C67.2189 40.8438 67.6252 40.1563 67.7189 39.4376C67.8439 38.6563 67.6564 37.8751 67.1877 37.2188C64.3752 33.4376 64.3439 28.3438 67.1564 24.5626L67.5002 24.1251L67.6564 23.6563C67.9064 22.9063 67.8127 22.0938 67.4689 21.4688C67.1252 20.7501 66.5002 20.2188 65.7502 20.0001C61.2814 18.5626 58.2814 14.4688 58.3439 9.78132C58.3439 9.40632 58.2814 9.09382 58.1877 8.78132C57.9377 8.06257 57.4064 7.46882 56.6877 7.09382C56.0002 6.78132 55.2189 6.71882 54.5002 6.96882C53.4064 7.34382 52.2502 7.53132 51.0939 7.53132C47.6564 7.53132 44.4064 5.87507 42.4377 3.06257C42.2189 2.78132 41.9689 2.53132 41.7502 2.37507C40.4377 1.43757 38.6252 1.75007 37.6877 3.06257C35.6877 5.87507 32.4689 7.53132 29.0314 7.53132C27.8439 7.53132 26.7189 7.34382 25.6564 6.96882C24.6564 6.62507 23.3752 6.87507 22.6252 7.65632C22.0627 8.21882 21.7814 8.96882 21.7814 9.71882C21.8439 14.4376 18.8439 18.5626 14.3752 19.9376C14.0314 20.0313 13.7502 20.1876 13.4377 20.4063C12.1564 21.3751 11.9064 23.1876 12.8439 24.5001C15.6564 28.2813 15.6564 33.3751 12.8439 37.1876C12.6564 37.4376 12.5002 37.7501 12.4064 38.0313C12.1877 38.7813 12.2502 39.5313 12.5939 40.2813C12.9689 40.9688 13.5939 41.4688 14.2814 41.6876C18.7814 43.1251 21.7502 47.2501 21.6877 51.8751C21.6564 52.2501 21.7189 52.5938 21.8439 52.9376C22.0939 53.6563 22.6252 54.2501 23.3439 54.6251C24.0627 54.9376 24.8127 55.0001 25.5314 54.7501C26.6564 54.3751 27.8439 54.1876 29.0002 54.1876C32.4689 54.1876 35.5939 55.8126 37.6252 58.6563C37.8127 58.9063 38.0627 59.1563 38.3127 59.3438C38.8127 59.6876 39.4064 59.8751 40.0002 59.8751C40.1564 59.8751 40.3439 59.8751 40.5002 59.8438C41.2814 59.7188 41.9377 59.2813 42.3752 58.6563C45.0939 54.8751 49.9064 53.2813 54.3752 54.7813ZM39.9689 56.7813C37.4064 53.2501 33.3127 51.1563 28.9689 51.1563C27.5314 51.1563 26.0627 51.3751 24.7189 51.8438C24.7189 45.9063 20.9377 40.6876 15.3439 38.9063C18.8439 34.0938 18.8439 27.6876 15.3752 22.8751C21.0002 21.0313 24.7502 15.8751 24.7814 9.93757C26.1252 10.3751 27.5314 10.5938 28.9689 10.5938C33.3127 10.5938 37.4377 8.50007 40.0002 5.00007C42.5627 8.50007 46.6877 10.5938 51.0627 10.5938C52.5314 10.5938 53.9689 10.3751 55.2502 9.90632C55.2502 15.7813 58.9689 20.9376 64.5939 22.8438C61.1252 27.6563 61.1252 34.0313 64.5939 38.8751C58.9689 40.7188 55.2502 45.8751 55.2189 51.8126C49.5627 50.0001 43.5002 51.9688 39.9689 56.7813Z" fill="#333333"/>
<path d="M52.625 28.7812C47.8437 26.7812 44.0938 23.0625 42.0625 18.2812C41.7188 17.4375 40.875 16.875 39.9688 16.875C39.0625 16.875 38.2187 17.4375 37.875 18.25C35.8437 23 32.125 26.7188 27.375 28.75C26.5312 29.0938 25.9688 29.9062 25.9688 30.8125C25.9688 31.7188 26.5 32.5313 27.3438 32.9062C31.9375 34.9063 35.75 38.7813 37.8437 43.5312C38.2187 44.375 39.0312 44.9062 39.9062 44.9062C40.8125 44.9062 41.625 44.375 41.9688 43.5312C43.9688 38.9062 47.8437 35.0625 52.625 32.9375C53.4375 32.5625 53.9687 31.75 53.9687 30.8437C54 29.9375 53.4687 29.125 52.625 28.7812ZM39.9375 40.8125C37.6875 36.5625 34.2188 33.0625 30.0938 30.8437C34.3438 28.6562 37.7812 25.25 39.9688 21C42.1562 25.2812 45.625 28.7188 49.9062 30.875C45.625 33.1563 42.125 36.6563 39.9375 40.8125Z" fill="#AFA496"/>
<path d="M30.8125 59.0001C30.0938 58.5314 29.1563 58.7501 28.6875 59.4376L20.5 71.9689L16.4062 63.5626L7.875 63.5314L16.4375 50.4064C16.9062 49.6876 16.6875 48.7501 16 48.2814C15.2813 47.8126 14.3438 48.0314 13.875 48.7189L2.21875 66.5939L14.5 66.6251L20.125 78.1564L31.25 61.1251C31.7188 60.4064 31.5312 59.4376 30.8125 59.0001Z" fill="#333333"/>
<path d="M66.0935 48.7188C65.6248 48 64.6873 47.8125 63.9685 48.2813C63.2498 48.75 63.0623 49.6875 63.531 50.4063L72.1248 63.5313L63.5623 63.5625L59.4685 71.9688L51.2811 59.4375C50.8123 58.7188 49.8748 58.5313 49.1561 59C48.4373 59.4688 48.2498 60.4063 48.7185 61.125L59.8748 78.1563L65.4998 66.625L77.781 66.5938L66.0935 48.7188Z" fill="#333333"/>
</svg>
