<svg width="60" height="60" viewBox="0 0 60 60" fill="none" xmlns="http://www.w3.org/2000/svg">
<path d="M51.703 48.6094L44.2967 39.539C47.7655 33.8437 48.6092 26.9297 46.5936 20.4609C46.4061 19.8515 45.7498 19.5234 45.1405 19.7109C44.5311 19.8984 44.1795 20.5547 44.3905 21.164C46.2889 27.2109 45.3983 33.6797 41.9295 38.9531L41.8592 39.0469C41.6248 39.4687 41.6483 39.9844 41.953 40.3594L49.8983 50.0625C49.8983 50.0625 50.0155 50.2031 50.0389 50.2031C50.6952 50.9531 50.6952 52.0078 50.0623 52.7812C50.0389 52.8047 50.0389 52.8281 50.0155 52.8281L49.8514 52.9922C49.1014 53.625 47.9998 53.625 47.2264 52.9453C47.1795 52.8984 47.1561 52.875 47.1092 52.8281L37.4061 44.9062C37.0077 44.5781 36.4452 44.5547 36.0233 44.8359L35.9295 44.9062C27.7498 50.25 16.8045 49.1719 9.82016 42.3281C9.77328 42.2578 9.74984 42.1875 9.70297 42.1406C1.54672 34.0312 1.54672 20.789 9.67953 12.6562C17.8123 4.52342 31.0545 4.52342 39.1873 12.6562C39.2342 12.7031 39.3045 12.75 39.3748 12.7734C39.3983 12.7969 39.4452 12.8437 39.4686 12.8672C39.867 13.3594 40.617 13.4297 41.1092 13.0078C41.6014 12.6094 41.6717 11.8594 41.2498 11.3672C41.1561 11.25 41.0155 11.1094 40.8748 10.9687C31.8514 1.96873 17.1561 1.89842 8.06234 10.8984C8.03891 10.9219 7.99203 10.9453 7.96859 10.9922C4.21859 14.7422 1.87484 19.7344 1.33578 25.0078C1.10141 27.3047 1.21859 29.6015 1.64047 31.8281C2.53109 36.3984 4.73422 40.5469 8.03891 43.8515C15.6092 51.3984 27.492 52.7812 36.5858 47.25L45.5858 54.6094C45.6327 54.6562 45.703 54.7265 45.7498 54.7734C46.5702 55.4765 47.5545 55.8047 48.5389 55.8047C49.5467 55.8047 50.5545 55.4531 51.3748 54.75L51.7733 54.375C51.8436 54.3047 51.8905 54.2344 51.9373 54.1406C53.1795 52.5234 53.1327 50.2734 51.7967 48.7031C51.7733 48.6797 51.7264 48.6328 51.703 48.6094Z" fill="black"/>
<path d="M58.5466 4.89842C58.3122 4.5703 57.9137 4.3828 57.4919 4.42967L49.9684 5.22655C49.5466 5.27342 49.195 5.53124 49.0309 5.90624C48.8669 6.28124 48.9137 6.72655 49.1481 7.05467L50.8122 9.32811L24.3747 28.3828C24.0934 28.5703 23.9294 28.8984 23.9059 29.2265L23.2028 38.25L11.7653 27.0703C11.5309 26.8359 11.2028 26.7187 10.8747 26.7422L7.52311 26.9765C6.8903 27.0234 6.39811 27.5625 6.44499 28.2187C6.49186 28.8515 7.05436 29.3437 7.68717 29.2969L10.5231 29.1094L23.3669 41.6484C23.5778 41.8594 23.8825 41.9766 24.1872 41.9766C24.3278 41.9766 24.4684 41.9531 24.5856 41.9062C25.0075 41.7422 25.2887 41.3672 25.3356 40.9219L26.2028 29.9765L52.2419 11.25L53.6716 13.2187C53.8825 13.5234 54.2341 13.6875 54.6091 13.6875C54.6559 13.6875 54.7028 13.6875 54.7262 13.6875C55.1481 13.6406 55.4997 13.3828 55.6637 13.0078L58.7106 6.09374C58.8512 5.67186 58.8044 5.24999 58.5466 4.89842ZM54.3278 10.1953L52.2419 7.33592L55.7575 6.96092L54.3278 10.1953Z" fill="#AFA496"/>
</svg>
