<svg width="34" height="30" viewBox="0 0 34 30" fill="none" xmlns="http://www.w3.org/2000/svg">
<path id="&#226;&#128;&#156;" d="M7.06154 30C4.88205 30 3.18205 29.2098 1.96154 27.6294C0.653846 26.0489 0 23.8978 0 21.1759C0 17.137 0.871795 13.4494 2.61538 10.1129C4.44615 6.77642 7.36667 3.65945 11.3769 0.761994C12.4231 -0.0282225 13.2513 -0.203825 13.8615 0.235183C14.2103 0.498591 14.3846 0.893699 14.3846 1.42051C14.3846 1.85952 14.0795 2.29853 13.4692 2.73753C10.5051 5.28379 8.58718 7.25933 7.71538 8.66416C6.93077 9.98118 6.53846 11.386 6.53846 12.8786C6.53846 14.4591 6.88718 15.6883 7.58462 16.5663C8.28205 17.3565 9.06667 18.059 9.93846 18.6736C10.8103 19.2004 11.5949 19.8589 12.2923 20.6491C12.9897 21.4393 13.3385 22.6247 13.3385 24.2051C13.3385 25.7855 12.7718 27.1464 11.6385 28.2879C10.5923 29.4293 9.06667 30 7.06154 30ZM26.6769 30C24.4974 30 22.7538 29.2098 21.4462 27.6294C20.2256 26.0489 19.6154 23.8978 19.6154 21.1759C19.6154 17.137 20.4872 13.4494 22.2308 10.1129C24.0615 6.77642 26.9821 3.65945 30.9923 0.761994C32.0385 -0.0282225 32.8667 -0.203825 33.4769 0.235183C33.8256 0.498591 34 0.893699 34 1.42051C34 1.85952 33.6949 2.29853 33.0846 2.73753C30.1205 5.28379 28.2026 7.25933 27.3308 8.66416C26.5462 9.98118 26.1538 11.386 26.1538 12.8786C26.1538 14.4591 26.5026 15.6883 27.2 16.5663C27.8974 17.3565 28.6821 18.059 29.5538 18.6736C30.4256 19.2004 31.2103 19.8589 31.9077 20.6491C32.6051 21.4393 32.9538 22.6247 32.9538 24.2051C32.9538 25.7855 32.3872 27.1464 31.2538 28.2879C30.2077 29.4293 28.6821 30 26.6769 30Z" fill="white"/>
</svg>
