<svg width="60" height="60" viewBox="0 0 60 60" fill="none" xmlns="http://www.w3.org/2000/svg">
<path d="M28.2065 3.63397C28.9402 2.14748 31.0598 2.14748 31.7935 3.63397L38.3514 16.9219C38.6428 17.5121 39.2059 17.9213 39.8573 18.0159L54.5214 20.1468C56.1618 20.3851 56.8168 22.4011 55.6298 23.5581L45.0188 33.9013C44.5474 34.3608 44.3323 35.0228 44.4436 35.6716L46.9485 50.2764C47.2287 51.9102 45.5139 53.1561 44.0466 52.3847L30.9307 45.4893C30.348 45.183 29.652 45.183 29.0693 45.4893L15.9534 52.3847C14.4861 53.1561 12.7713 51.9102 13.0515 50.2764L15.5564 35.6716C15.6677 35.0228 15.4526 34.3608 14.9812 33.9013L4.37021 23.5581C3.18317 22.4011 3.83819 20.3851 5.47863 20.1468L20.1427 18.0159C20.7941 17.9213 21.3572 17.5121 21.6486 16.9219L28.2065 3.63397Z" fill="white"/>
<path d="M29.1033 21.817C29.4701 21.0737 30.5299 21.0737 30.8967 21.817L32.7063 25.4835C32.8519 25.7786 33.1335 25.9832 33.4592 26.0305L37.5054 26.6185C38.3256 26.7376 38.6531 27.7456 38.0596 28.3242L35.1318 31.1781C34.8961 31.4079 34.7885 31.7389 34.8442 32.0632L35.5353 36.0931C35.6754 36.91 34.818 37.533 34.0844 37.1473L30.4653 35.2446C30.174 35.0915 29.826 35.0915 29.5347 35.2446L25.9156 37.1473C25.182 37.533 24.3246 36.91 24.4647 36.0931L25.1558 32.0632C25.2115 31.7389 25.1039 31.4079 24.8682 31.1781L21.9404 28.3242C21.3469 27.7456 21.6744 26.7376 22.4946 26.6185L26.5408 26.0305C26.8665 25.9832 27.1481 25.7786 27.2937 25.4835L29.1033 21.817Z" fill="#AFA496"/>
</svg>
