<svg width="60" height="60" viewBox="0 0 60 60" fill="none" xmlns="http://www.w3.org/2000/svg">
<path d="M29.5516 4.29781C29.735 3.9262 30.265 3.92619 30.4484 4.29782L37.0063 17.5857C37.5162 18.6187 38.5016 19.3347 39.6416 19.5004L54.3057 21.6312C54.7158 21.6908 54.8795 22.1947 54.5828 22.484L43.9718 32.8272C43.1469 33.6313 42.7704 34.7898 42.9652 35.9252L45.4701 50.5299C45.5402 50.9384 45.1114 51.2499 44.7446 51.057L31.6287 44.1616C30.6091 43.6255 29.3909 43.6255 28.3713 44.1616L15.2554 51.057C14.8886 51.2499 14.4598 50.9384 14.5299 50.53L17.0348 35.9252C17.2296 34.7898 16.8531 33.6313 16.0282 32.8272L5.41722 22.484C5.12046 22.1947 5.28423 21.6908 5.69433 21.6312L20.3584 19.5004L20.1427 18.0159L20.3584 19.5004C21.4984 19.3347 22.4838 18.6187 22.9937 17.5857L29.5516 4.29781Z" stroke="#AFA496" stroke-width="3"/>
<path d="M29.1033 21.817C29.4701 21.0737 30.5299 21.0737 30.8967 21.817L32.7063 25.4835C32.8519 25.7786 33.1335 25.9832 33.4592 26.0305L37.5054 26.6185C38.3256 26.7376 38.6531 27.7456 38.0596 28.3242L35.1318 31.1781C34.8961 31.4079 34.7885 31.7389 34.8442 32.0632L35.5353 36.0931C35.6754 36.91 34.818 37.533 34.0844 37.1473L30.4653 35.2446C30.174 35.0915 29.826 35.0915 29.5347 35.2446L25.9156 37.1473C25.182 37.533 24.3246 36.91 24.4647 36.0931L25.1558 32.0632C25.2115 31.7389 25.1039 31.4079 24.8682 31.1781L21.9404 28.3242C21.3469 27.7456 21.6744 26.7376 22.4946 26.6185L26.5408 26.0305C26.8665 25.9832 27.1481 25.7786 27.2937 25.4835L29.1033 21.817Z" fill="#AFA496"/>
</svg>
