<svg width="0" height="0" class="hidden">
  <symbol fill="none" xmlns="http://www.w3.org/2000/svg" viewBox="0 0 9 16" id="ic_arr_hor">
    <path d="M8.70711 8.70711C9.09763 8.31658 9.09763 7.68342 8.70711 7.29289L2.34315 0.928932C1.95262 0.538408 1.31946 0.538408 0.928932 0.928932C0.538408 1.31946 0.538408 1.95262 0.928932 2.34315L6.58579 8L0.928932 13.6569C0.538408 14.0474 0.538408 14.6805 0.928932 15.0711C1.31946 15.4616 1.95262 15.4616 2.34315 15.0711L8.70711 8.70711ZM7 9H8V7H7V9Z" fill="currentColor"></path>
  </symbol>
  <symbol fill="none" xmlns="http://www.w3.org/2000/svg" viewBox="0 0 12 12" id="ic_arr_ver">
    <path d="M0.744153 3.74821C0.418615 4.07438 0.418615 4.60319 0.744153 4.92945L4.82221 9.01178C5.4734 9.66362 6.52855 9.66336 7.17933 9.0112L11.2559 4.92644C11.5814 4.60019 11.5814 4.07138 11.2559 3.74512C10.9304 3.41894 10.4025 3.41894 10.077 3.74512L6.5879 7.24132C6.26239 7.56751 5.73465 7.56751 5.40905 7.24132L1.92301 3.74821C1.59748 3.42195 1.06968 3.42195 0.744153 3.74821Z" fill="currentColor"></path>
  </symbol>
  <symbol fill="none" xmlns="http://www.w3.org/2000/svg" viewBox="0 0 17 12" id="ic_arrow_hor">
    <path d="M16.5303 6.53033C16.8232 6.23744 16.8232 5.76256 16.5303 5.46967L11.7574 0.696698C11.4645 0.403805 10.9896 0.403805 10.6967 0.696698C10.4038 0.989592 10.4038 1.46447 10.6967 1.75736L14.9393 6L10.6967 10.2426C10.4038 10.5355 10.4038 11.0104 10.6967 11.3033C10.9896 11.5962 11.4645 11.5962 11.7574 11.3033L16.5303 6.53033ZM6.55671e-08 6.75L16 6.75L16 5.25L-6.55671e-08 5.25L6.55671e-08 6.75Z" fill="currentColor"></path>
  </symbol>
  <symbol fill="none" xmlns="http://www.w3.org/2000/svg" viewBox="0 0 31 16" id="ic_arrow_hor2">
    <path d="M0.29289 7.2929C-0.0976334 7.68342 -0.0976333 8.31659 0.292891 8.70711L6.65685 15.0711C7.04738 15.4616 7.68054 15.4616 8.07107 15.0711C8.46159 14.6805 8.46159 14.0474 8.07107 13.6569L2.41421 8L8.07107 2.34315C8.46159 1.95262 8.46159 1.31946 8.07107 0.928934C7.68054 0.53841 7.04738 0.53841 6.65685 0.928934L0.29289 7.2929ZM31 7L0.999998 7L0.999998 9L31 9L31 7Z" fill="currentColor"></path>
  </symbol>
  <symbol fill="none" xmlns="http://www.w3.org/2000/svg" viewBox="0 0 30 30" id="ic_arrow_ver">
    <path d="M15 22.5L15 7.5M15 22.5L21.25 16.25M15 22.5L8.75 16.25" stroke="currentColor" stroke-width="2" stroke-linecap="round" stroke-linejoin="round"></path>
  </symbol>
  <symbol fill="none" xmlns="http://www.w3.org/2000/svg" viewBox="0 0 22 22" id="ic_close">
    <path d="M16.5 16.5L11 11M11 11L5.5 5.5M11 11L16.5 5.5M11 11L5.5 16.5" stroke="currentColor" stroke-width="2" stroke-linecap="round" stroke-linejoin="round"></path>
  </symbol>
  <symbol fill="none" xmlns="http://www.w3.org/2000/svg" viewBox="0 0 40 40" id="ic_fb">
    <path fill-rule="evenodd" clip-rule="evenodd" d="M23.0962 37V21.7H27.7413L28.5 14.9H23.0962V11.588C23.0962 9.83699 23.1409 8.1 25.5877 8.1H28.066V3.23823C28.066 3.16513 25.9372 3 23.7837 3C19.286 3 16.4698 5.81723 16.4698 10.9903V14.9H11.5V21.7H16.4698V37H23.0962Z" fill="currentColor"></path>
  </symbol>
  <symbol fill="none" xmlns="http://www.w3.org/2000/svg" viewBox="0 0 40 40" id="ic_instagram">
    <path d="M25 20C25 20.9889 24.7068 21.9556 24.1573 22.7779C23.6079 23.6001 22.827 24.241 21.9134 24.6194C20.9998 24.9978 19.9945 25.0969 19.0245 24.9039C18.0546 24.711 17.1637 24.2348 16.4645 23.5355C15.7652 22.8363 15.289 21.9454 15.0961 20.9755C14.9031 20.0055 15.0022 19.0002 15.3806 18.0866C15.759 17.173 16.3999 16.3921 17.2221 15.8427C18.0444 15.2932 19.0111 15 20 15C21.3256 15.0015 22.5965 15.5288 23.5339 16.4661C24.4712 17.4035 24.9985 18.6744 25 20ZM35.625 13.125V26.875C35.6224 29.1948 34.6997 31.4189 33.0593 33.0593C31.4189 34.6997 29.1948 35.6224 26.875 35.625H13.125C10.8052 35.6224 8.58109 34.6997 6.94072 33.0593C5.30034 31.4189 4.37763 29.1948 4.375 26.875V13.125C4.37763 10.8052 5.30034 8.58109 6.94072 6.94072C8.58109 5.30034 10.8052 4.37763 13.125 4.375H26.875C29.1948 4.37763 31.4189 5.30034 33.0593 6.94072C34.6997 8.58109 35.6224 10.8052 35.625 13.125ZM27.5 20C27.5 18.5166 27.0601 17.0666 26.236 15.8332C25.4119 14.5999 24.2406 13.6386 22.8701 13.0709C21.4997 12.5032 19.9917 12.3547 18.5368 12.6441C17.082 12.9335 15.7456 13.6478 14.6967 14.6967C13.6478 15.7456 12.9335 17.082 12.6441 18.5368C12.3547 19.9917 12.5032 21.4997 13.0709 22.8701C13.6386 24.2406 14.5999 25.4119 15.8332 26.236C17.0666 27.0601 18.5166 27.5 20 27.5C21.9884 27.4978 23.8948 26.7069 25.3008 25.3008C26.7069 23.8948 27.4978 21.9884 27.5 20ZM30 11.875C30 11.5042 29.89 11.1416 29.684 10.8333C29.478 10.525 29.1851 10.2846 28.8425 10.1427C28.4999 10.0008 28.1229 9.96368 27.7592 10.036C27.3955 10.1084 27.0614 10.287 26.7992 10.5492C26.537 10.8114 26.3584 11.1455 26.286 11.5092C26.2137 11.8729 26.2508 12.2499 26.3927 12.5925C26.5346 12.9351 26.775 13.228 27.0833 13.434C27.3916 13.64 27.7542 13.75 28.125 13.75C28.6223 13.75 29.0992 13.5525 29.4508 13.2008C29.8025 12.8492 30 12.3723 30 11.875Z" fill="currentColor"></path>
  </symbol>
  <symbol fill="none" xmlns="http://www.w3.org/2000/svg" viewBox="0 0 14 14" id="ic_link_arrow">
    <path d="M4.08594 4.08268L9.91927 9.91602M9.91927 9.91602H4.66927M9.91927 9.91602V4.66602" stroke="currentColor" stroke-width="1.5" stroke-linecap="round" stroke-linejoin="round"></path>
  </symbol>
  <symbol fill="none" xmlns="http://www.w3.org/2000/svg" viewBox="0 0 20 20" id="ic_menu">
    <path d="M2.5 4.16659C2.5 3.70635 2.8731 3.33325 3.33333 3.33325H16.6667C17.1269 3.33325 17.5 3.70635 17.5 4.16659C17.5 4.62682 17.1269 4.99992 16.6667 4.99992H3.33333C2.8731 4.99992 2.5 4.62682 2.5 4.16659ZM2.5 9.99992C2.5 9.53968 2.8731 9.16658 3.33333 9.16658H16.6667C17.1269 9.16658 17.5 9.53968 17.5 9.99992C17.5 10.4602 17.1269 10.8333 16.6667 10.8333H3.33333C2.8731 10.8333 2.5 10.4602 2.5 9.99992ZM2.5 15.8333C2.5 15.373 2.8731 14.9999 3.33333 14.9999H16.6667C17.1269 14.9999 17.5 15.373 17.5 15.8333C17.5 16.2935 17.1269 16.6666 16.6667 16.6666H3.33333C2.8731 16.6666 2.5 16.2935 2.5 15.8333Z" fill="currentColor"></path>
  </symbol>
  <symbol fill="none" xmlns="http://www.w3.org/2000/svg" viewBox="0 0 30 30" id="ic_move">
    <path d="M10.9998 5.66669L14.9998 1.66669M14.9998 1.66669L18.9998 5.66669M14.9998 1.66669V15M14.9998 15V28.3334M14.9998 15H28.3332M14.9998 15H1.6665M14.9998 28.3334L10.9998 24.3334M14.9998 28.3334L18.9998 24.3334M28.3332 15L24.3332 11M28.3332 15L24.3332 19M1.6665 15L5.6665 11M1.6665 15L5.6665 19" stroke="currentColor" stroke-width="2" stroke-linecap="round" stroke-linejoin="round"></path>
  </symbol>
  <symbol fill="none" xmlns="http://www.w3.org/2000/svg" viewBox="0 0 22 21" id="ic_star">
    <path d="M10.0554 0.717388C10.3667 -0.178172 11.6333 -0.178173 11.9446 0.717387L13.828 6.13583C13.9653 6.5309 14.334 6.79877 14.7522 6.80729L20.4875 6.92416C21.4354 6.94348 21.8268 8.14803 21.0712 8.72083L16.5 12.1865C16.1667 12.4392 16.0259 12.8726 16.147 13.2729L17.8081 18.7636C18.0827 19.6711 17.058 20.4156 16.2798 19.874L11.5712 16.5975C11.2279 16.3586 10.7721 16.3586 10.4288 16.5975L5.7202 19.874C4.94196 20.4156 3.91731 19.6711 4.19186 18.7636L5.853 13.2729C5.97412 12.8726 5.83329 12.4392 5.49999 12.1865L0.928769 8.72083C0.173237 8.14803 0.564617 6.94348 1.51254 6.92416L7.2478 6.80729C7.66597 6.79877 8.03466 6.5309 8.17199 6.13583L10.0554 0.717388Z" fill="currentColor"></path>
  </symbol>
  <symbol fill="none" xmlns="http://www.w3.org/2000/svg" viewBox="0 0 24 24" id="ic_tg">
    <path d="M3.34072 10.8316C9.49904 8.1224 17.4684 4.81931 18.5685 4.36214C21.4541 3.16556 22.3395 3.39488 21.898 6.0448C21.581 7.94943 20.6661 14.2552 19.937 18.1801C19.5044 20.5076 18.5337 20.7835 17.0073 19.7766C16.2733 19.2919 12.5684 16.8419 11.7643 16.2667C11.0303 15.7424 10.0179 15.1118 11.2875 13.8696C11.7393 13.4271 14.7009 10.5993 17.0083 8.39827C17.3106 8.10917 16.9309 7.63436 16.582 7.86613C13.472 9.92853 9.15996 12.7911 8.61116 13.164C7.78208 13.727 6.98583 13.9852 5.5565 13.5746C4.47654 13.2645 3.42157 12.8945 3.01095 12.7534C1.42972 12.2105 1.80506 11.5073 3.34072 10.8316Z" fill="currentColor"></path>
  </symbol>
  <symbol fill="none" xmlns="http://www.w3.org/2000/svg" viewBox="0 0 40 40" id="ic_vk">
    <path d="M23.828 19.6877C23.203 19.4527 23.203 18.5552 23.1642 17.9302C23.008 15.7039 23.7892 12.3052 22.8517 10.8602C22.188 10.0002 18.9842 10.0789 17.0317 10.1964C16.4842 10.2752 15.8205 10.3914 15.3517 10.6264C14.883 10.8614 14.4142 11.2514 14.4142 11.6027C14.4142 12.1102 15.5867 12.0327 16.0155 12.6964C16.4842 13.4002 16.4842 14.9227 16.4842 16.1727C16.4842 17.6177 16.2492 19.5327 15.6642 19.6102C14.7655 19.6489 14.258 18.7502 13.7892 18.0864C12.8517 16.7977 11.9142 15.1952 11.2105 13.6327C10.8592 12.8127 10.663 11.9139 10.1555 11.5627C9.37421 11.0152 7.96796 10.9764 6.60046 11.0152C5.35046 11.0539 3.55296 10.8977 3.20171 11.6402C2.92796 12.4602 3.51421 13.2414 3.82671 13.9064C5.42796 17.3827 7.14671 20.4302 9.25671 23.3202C11.2105 26.0152 13.0455 28.1639 16.6392 29.2964C17.6555 29.6089 22.108 30.5077 23.0067 29.2964C23.3192 28.8277 23.2417 27.7727 23.398 26.9914C23.5542 26.2102 23.7492 25.4289 24.4917 25.3902C25.1167 25.3514 25.468 25.8977 25.8592 26.2889C26.2892 26.7189 26.6405 27.0702 26.953 27.4614C27.6955 28.2039 28.4767 29.2189 29.4142 29.6102C30.703 30.1577 32.6955 30.0014 34.5705 29.9227C36.0942 29.8839 37.188 29.5714 37.3055 28.6727C37.3842 27.9689 36.6017 26.9539 36.133 26.3677C34.9605 24.9227 34.4142 24.4927 33.0855 23.1639C32.4992 22.5777 31.7567 21.9527 31.7567 21.2502C31.718 20.8202 32.0692 20.4302 32.3817 20.0002C33.7492 17.9689 35.1167 16.5239 36.3667 14.4139C36.718 13.7889 37.5392 12.3439 37.2267 11.6402C36.8755 10.8589 34.9217 11.0927 33.7105 11.0927C32.148 11.0927 30.1167 10.9752 29.7255 11.2877C28.983 11.7952 28.6705 12.6164 28.3192 13.3977C27.538 15.1952 26.483 17.0302 25.3892 18.3977C24.998 18.8664 24.2567 19.8427 23.8267 19.6864L23.828 19.6877Z" fill="currentColor"></path>
  </symbol>
</svg>